# xmcd
# 
# Track frame offsets:
#     150
#     16361
#     38246
#     62902
#     79096
# 
# Disc length: 1346
# 
# Revision: 0
# Processed by: cddbd v1.5.2PL0 Copyright (c) Steve Scherf et al.
# Submitted via: BonkEnc v1.0.8
# 
DISCID=38054005
DTITLE=幽閉サテライト - θで突き刺して
DYEAR=2013
DGENRE=JPop
TTITLE0=θで突き刺して
TTITLE1=スクリーミング・インフェルノ
TTITLE2=感情ケミストリー(Drum ‘n’ Bass Remix)
TTITLE3=θで突き刺して(Instrumental)
TTITLE4=スクリーミング・インフェルノ(Instrumental)
EXTD=
EXTT0=
EXTT1=
EXTT2=
EXTT3=
EXTT4=
PLAYORDER=
